<svg xmlns="http://www.w3.org/2000/svg" xmlns:xlink="http://www.w3.org/1999/xlink" width="84px" height="60px" viewBox="0 0 84 60"><title>AIC Logo</title><defs><polygon id="path-1" points="0 0.10130855 51.8028624 0.10130855 51.8028624 22.6461413 0 22.6461413"></polygon><polygon id="path-3" points="0.042802974 0.095464684 55.1778959 0.095464684 55.1778959 59.7769071 0.042802974 59.7769071"></polygon></defs><g id="Desktop" stroke="none" stroke-width="1" fill="none" fill-rule="evenodd"><g id="AIC_Microsite" transform="translate(-678.000000, -40.000000)"><g id="Module-01"><g id="Nav"><g id="Group-59" transform="translate(678.000000, 40.000000)"><path d="M29.9803271,20.8107658 C29.9803271,21.9342602 29.0691747,22.8442974 27.9476877,22.8442974 C26.8224089,22.8442974 25.9096952,21.9342602 25.9096952,20.8107658 C25.9096952,19.6830335 26.8224089,18.7754498 27.9476877,18.7754498 C29.0691747,18.7754498 29.9803271,19.6830335 29.9803271,20.8107658" id="Fill-1" fill="#FFFFFF"></path><g id="Group-5" transform="translate(0.000000, 18.863643)"><mask id="mask-2" fill="white"><use xlink:href="#path-1"></use></mask><g id="Clip-4"></g><path d="M51.3576803,17.1368476 C51.0500967,16.8214572 50.6599851,16.6617546 50.2112119,16.6617546 C49.7651152,16.6617546 49.3758959,16.8214572 49.071658,17.1290409 C48.3280149,17.8369963 47.4757472,18.4022007 46.5273457,18.7972193 C45.5840743,19.1951375 44.5567138,19.3938736 43.4553011,19.3938736 C42.3614721,19.3938736 41.3205056,19.1848773 40.3627361,18.7708996 C39.4009517,18.3529071 38.5475688,17.7783346 37.8268996,17.0525353 C37.103777,16.3276283 36.5258587,15.4735762 36.1145576,14.5108996 C35.7016952,13.5540223 35.4924758,12.5146171 35.4924758,11.4174424 C35.4924758,10.3247286 35.7074944,9.27350186 36.1212491,8.30212639 C36.536119,7.32807435 37.1113606,6.46376208 37.8344833,5.74420818 C38.5620669,5.02019331 39.4196877,4.44562082 40.3747807,4.03008178 C41.3347807,3.62034201 42.3708401,3.41067658 43.4689071,3.41067658 C44.5660818,3.41067658 45.6003569,3.61454275 46.5451896,4.0140223 C47.4893532,4.41684758 48.3494275,4.95127138 49.0792416,5.59811152 C49.3895019,5.90480297 49.7796134,6.06361338 50.2241487,6.06361338 C50.6744833,6.06361338 51.061026,5.9081487 51.3719554,5.59811152 C51.7544833,5.21134572 51.877829,4.75655019 51.7170112,4.2747658 C51.564223,3.82443123 51.3900223,3.51930112 51.1774572,3.34242379 C50.8758959,3.07075093 50.4730706,2.73997026 49.9834796,2.37394796 C49.4898736,2.00324164 48.919539,1.65149442 48.2856357,1.32584387 C47.6541859,1.00220074 46.939316,0.722498141 46.1584238,0.489635688 C45.3630335,0.255881041 44.4971599,0.136104089 43.5605799,0.136104089 C41.9577546,0.196550186 40.4468253,0.533130112 39.084,1.12866914 C37.7089071,1.72956134 36.5080149,2.53967286 35.506974,3.54227509 C34.4981264,4.54242379 33.7011747,5.7281487 33.1335167,7.06978439 C32.5598364,8.41097398 32.2656357,9.87260967 32.2656357,11.415881 C32.2656357,13.0144684 32.5598364,14.5166989 33.143777,15.8748401 C33.7214721,17.2320892 34.5400595,18.4249517 35.5605056,19.4126097 C36.5726989,20.3964758 37.7691301,21.1809368 39.111881,21.7367732 C40.4537398,22.2932788 41.9144833,22.5765502 43.4528476,22.5765502 L43.4644461,22.5765502 C44.4182007,22.5765502 45.3121784,22.4752862 46.1209517,22.2832416 C46.9428848,22.0782602 47.6865279,21.8208625 48.3512119,21.5168476 C49.0138885,21.2090409 49.5960446,20.8733532 50.077829,20.5155836 C50.5553755,20.1636134 50.9370112,19.8426468 51.2164907,19.5611599 C51.5854126,19.1906766 51.7825874,18.772684 51.8013234,18.3103048 C51.8198364,17.8412342 51.6712862,17.4453234 51.3576803,17.1368476 M27.946974,6.3082974 C27.4950781,6.3082974 27.1125502,6.46376208 26.7989442,6.77759108 C26.488684,7.08762825 26.3289814,7.47260967 26.3289814,7.92294424 L26.3102454,20.9958067 C26.3102454,21.4419033 26.4708401,21.8253234 26.7817695,22.137145 C27.0895762,22.4487435 27.4745576,22.6104535 27.9257844,22.6104535 C28.3736654,22.6104535 28.763777,22.4523123 29.0713606,22.1395985 C29.3847435,21.8268848 29.5411004,21.4419033 29.5411004,20.9958067 L29.5582751,7.92294424 C29.5582751,7.47528625 29.4034796,7.09208922 29.0925502,6.77759108 C28.7798364,6.46376208 28.3990929,6.3082974 27.946974,6.3082974 M11.198052,3.53625279 L11.198052,3.33930112 L11.2056357,3.53625279 C12.278052,3.53803717 13.3031822,3.74368773 14.2591673,4.1474052 C15.213368,4.55536059 16.062513,5.12301859 16.7668996,5.83409665 C17.4788699,6.54294424 18.0416208,7.38852045 18.4451152,8.34272119 C18.8463792,9.30227509 19.0520297,10.3271822 19.0520297,11.3868848 C18.9924758,12.5246543 18.7495762,13.5743197 18.3313606,14.5151375 C17.9073457,15.4550632 17.3372342,16.2868104 16.62571,16.9804907 C15.9137398,17.6764015 15.084223,18.2271078 14.1587955,18.6163271 C13.2291301,19.0055465 12.2372342,19.1982602 11.1913606,19.1982602 C10.1187212,19.1982602 9.10072862,18.9935019 8.15991078,18.5900074 C7.21998513,18.1804907 6.38043123,17.6143941 5.67269888,16.9046543 C4.96719703,16.1942454 4.40377695,15.3564758 3.99582156,14.4123123 C3.59299628,13.4757323 3.38667658,12.4552862 3.38667658,11.3844312 C3.38667658,10.312684 3.59812639,9.2819777 4.00251301,8.33112268 C4.40890706,7.3740223 4.97232714,6.53179182 5.68608178,5.82071375 C6.39314498,5.11275836 7.23024535,4.54866914 8.17284758,4.14316729 C9.11411152,3.74011896 10.1256357,3.53625279 11.198052,3.53625279 M19.1055613,3.45640149 C18.0924758,2.43751673 16.8942602,1.61826022 15.5566394,1.0149145 C14.2150037,0.411568773 12.7863792,0.10398513 11.2906171,0.10130855 C9.68957621,0.163315985 8.18533829,0.500788104 6.8173829,1.0947658 C5.44474349,1.69632714 4.23983643,2.51067658 3.23277323,3.50904089 C2.23173234,4.51119703 1.43455762,5.69647584 0.864223048,7.03855762 C0.292550186,8.38019331 0.00169516729,9.84115985 -8.92193309e-05,11.3844312 C-0.00410408922,12.9879257 0.292550186,14.4861413 0.878052045,15.8440595 C1.46266171,17.2030929 2.27411152,18.3883717 3.29388848,19.3778141 C4.30697398,20.3652491 5.5034052,21.1512714 6.8445948,21.7068848 C8.18533829,22.2611599 9.64808922,22.5448773 11.198052,22.5448773 C12.8653383,22.5448773 14.4367138,22.132684 15.8720297,21.3143197 C17.1400595,20.5938736 18.2617695,19.7353606 19.2059331,18.753948 L19.2059331,21.0306022 C19.2023643,21.4784833 19.3587212,21.8659182 19.6714349,22.178632 C19.9843717,22.4871078 20.3666766,22.6461413 20.816119,22.6461413 L20.8196877,22.6461413 C21.264,22.6461413 21.6514349,22.4888922 21.9634796,22.1810855 C22.2770855,21.8685948 22.4325502,21.4833903 22.4325502,21.0323866 L22.4461561,11.4074052 C22.4488327,9.86234944 22.1419182,8.39134572 21.5401338,7.03498885 C20.9403569,5.67863197 20.123777,4.47617844 19.1055613,3.45640149" id="Fill-3" fill="#FFFFFF" mask="url(#mask-2)"></path></g><path d="M48.9677621,6.57640149 C44.707539,6.57640149 40.6786171,7.43892937 37.0973532,8.97796283 C36.9633011,9.02881784 36.8671673,9.1615316 36.8671673,9.31186617 C36.8671673,9.50837175 37.0268699,9.67142007 37.2249368,9.67142007 C37.2682082,9.67142007 37.3123717,9.65937546 37.3543048,9.64510037 C39.856684,8.92777695 42.5261264,8.53677323 45.3008476,8.53677323 C59.3863494,8.53677323 70.8001784,18.5569963 70.8001784,30.9192268 C70.8001784,40.2245799 64.3324461,48.2054721 55.1203271,51.5824238 C54.8185428,51.6504535 54.5901413,51.9181115 54.5901413,52.243539 C54.5901413,52.6117918 54.8932639,52.9200446 55.2639703,52.9200446 C55.3386914,52.9200446 55.4006989,52.908223 55.4635985,52.8870335 C67.2209219,50.3561041 74.6234498,41.3244312 74.6234498,30.297368 C74.6234498,17.3146171 63.8640446,6.57640149 48.9677621,6.57640149" id="Fill-6" fill="#FFFFFF"></path><path d="M47.8111227,47.7432045 C44.8809368,47.7432045 42.1207138,47.1262528 39.6578141,46.0275167 C39.5679257,45.9933903 39.4981115,45.8990409 39.4981115,45.7904164 C39.4981115,45.6483346 39.6120892,45.5327955 39.7436877,45.5327955 C39.7762528,45.5327955 39.8074796,45.5412714 39.8346914,45.5515316 C41.5521636,46.065658 43.3833903,46.3451375 45.2895613,46.3451375 C54.9535762,46.3451375 62.7959554,39.1848401 62.7959554,30.350119 C62.7959554,23.7019405 58.3470335,17.99971 52.0253978,15.5921264 C51.8197472,15.5412714 51.6649517,15.350119 51.6649517,15.1172565 C51.6649517,14.8493755 51.8732788,14.6336877 52.1255465,14.6336877 C52.1772937,14.6336877 52.2223494,14.6430558 52.2649517,14.6539851 C60.3314944,16.4651375 66.3132045,23.076513 66.3132045,30.9541338 C66.3132045,40.2249145 58.0300818,47.7432045 47.8111227,47.7432045" id="Fill-8" fill="#FFFFFF"></path><g id="Group-12" transform="translate(27.881041, 0.127584)"><mask id="mask-4" fill="white"><use xlink:href="#path-3"></use></mask><g id="Clip-11"></g><path d="M21.8286022,0.0954200743 C13.5320967,0.0954200743 5.94064684,2.81147955 0.108156134,7.30010409 C0.0657769517,7.32218587 0.042802974,7.36211152 0.042802974,7.41318959 C0.042802974,7.48278067 0.0990111524,7.5447881 0.17797026,7.5447881 C0.202505576,7.5447881 0.226371747,7.53631227 0.246669145,7.52025279 L0.249345725,7.52270632 C5.54875093,4.10984387 12.0831747,2.08969517 19.1602751,2.08969517 C36.8294944,2.08969517 51.1556654,14.6653829 51.1556654,30.1721487 C51.1556654,45.6820372 36.8294944,58.2541561 19.1602751,58.2541561 C16.9819851,58.2541561 14.8558885,58.0647881 12.7978216,57.7001041 C12.7670409,57.6907361 12.730461,57.6862751 12.6905353,57.6862751 C12.4380446,57.6862751 12.227487,57.8963866 12.227487,58.1537844 C12.227487,58.368803 12.3684535,58.548803 12.5631747,58.6059033 L12.5631747,58.6083569 C15.5067435,59.3671673 18.6138067,59.7769071 21.8286022,59.7769071 C40.2441413,59.7769071 55.1778959,46.4145279 55.1778959,29.9314796 C55.1778959,13.4537844 40.2441413,0.0954200743 21.8286022,0.0954200743" id="Fill-10" fill="#FFFFFF" mask="url(#mask-4)"></path></g><path d="M2.49202974,47.4044833 L2.49202974,47.2251524 C2.32273606,47.1437398 2.09745725,47.0919926 1.85611896,47.0919926 C1.42965056,47.0919926 1.16779182,47.2644089 1.16779182,47.5795762 L1.16779182,47.5940743 C1.16779182,47.8592788 1.39307063,48.0180892 1.71269888,48.0180892 C2.18087732,48.0180892 2.49202974,47.7647063 2.49202974,47.4044833 M0.203330855,47.6315465 L0.203330855,47.6186097 C0.203330855,46.8506543 0.787048327,46.4971227 1.62281041,46.4971227 C1.97544981,46.4971227 2.22927881,46.5573457 2.47998513,46.6432193 L2.47998513,46.581881 C2.47998513,46.1681264 2.22526394,45.9395019 1.72697398,45.9395019 C1.450171,45.9395019 1.22823792,45.9785353 1.04043123,46.0380892 C0.978423792,46.0568253 0.941174721,46.0644089 0.897011152,46.0644089 C0.665040892,46.0644089 0.479687732,45.8902082 0.479687732,45.6591301 C0.479687732,45.4804684 0.593442379,45.3301338 0.75069145,45.270803 C1.06853532,45.1523643 1.40913011,45.0879033 1.87329368,45.0879033 C2.41530112,45.0879033 2.80898141,45.2290929 3.05968773,45.4804684 C3.32132342,45.7414349 3.43953903,46.1306543 3.43953903,46.6039628 L3.43953903,48.2034424 C3.43953903,48.4744461 3.22362825,48.6800967 2.95240149,48.6800967 C2.66533829,48.6800967 2.47820074,48.478684 2.47820074,48.2687955 L2.47820074,48.2603197 C2.22927881,48.5322156 1.89805204,48.7073086 1.4109145,48.7073086 C0.75069145,48.7073086 0.203330855,48.3283494 0.203330855,47.6315465" id="Fill-13" fill="#FFFFFF"></path><path d="M6.72254275,46.7155093 L6.72254275,46.7012342 C6.72254275,46.2216803 6.3493829,45.887777 5.86001487,45.887777 C5.3755539,45.887777 5.00930855,46.2216803 5.00930855,46.7012342 L5.00930855,46.7155093 C5.00930855,47.1990781 5.3755539,47.5280743 5.86001487,47.5280743 C6.3493829,47.5280743 6.72254275,47.1906022 6.72254275,46.7155093 M4.45793309,49.4645799 C4.28440149,49.3967732 4.17466171,49.2589294 4.17466171,49.0762528 C4.17466171,48.8518662 4.36001487,48.6725353 4.58083271,48.6725353 C4.64484758,48.6725353 4.6957026,48.680342 4.74767286,48.7015316 C5.03228253,48.8349145 5.34075836,48.9089665 5.71637175,48.9089665 C6.39956877,48.9089665 6.72254275,48.5859926 6.72254275,47.9545428 L6.72254275,47.7819033 C6.42588848,48.1398959 6.10536803,48.357368 5.57272862,48.357368 C4.75012639,48.357368 4.01250558,47.7564758 4.01250558,46.7155093 L4.01250558,46.7012342 C4.01250558,45.6500074 4.76284015,45.0609368 5.57272862,45.0609368 C6.11741264,45.0609368 6.43949442,45.288 6.70804461,45.5862156 L6.70804461,45.5801933 C6.70804461,45.3098587 6.93086989,45.0872565 7.20432714,45.0872565 C7.48046097,45.0872565 7.70663197,45.3098587 7.70663197,45.5862156 L7.70663197,47.8492639 C7.70663197,48.4787063 7.55428996,48.9377398 7.25785874,49.2326097 C6.93086989,49.5580372 6.42588848,49.705026 5.74113011,49.705026 C5.2754052,49.705026 4.86834201,49.6260669 4.45793309,49.4645799" id="Fill-15" fill="#FFFFFF"></path><path d="M10.7764015,46.6083569 C10.7159554,46.1640446 10.4552119,45.861368 10.0329814,45.861368 C9.61967286,45.861368 9.35134572,46.1577993 9.27484015,46.6083569 L10.7764015,46.6083569 Z M10.1322379,48.7219628 C9.07766543,48.7219628 8.29855762,47.9834498 8.29855762,46.9065725 L8.29855762,46.8880595 C8.29855762,45.8901413 9.01231227,45.0608476 10.0329814,45.0608476 C11.208223,45.0608476 11.7290409,46.0246394 11.7290409,46.7526691 C11.7290409,47.042632 11.5209368,47.2337844 11.2617546,47.2337844 L9.2884461,47.2337844 C9.38614126,47.6850112 9.69617844,47.9254572 10.1442825,47.9254572 C10.4219777,47.9254572 10.6514944,47.8346766 10.8553606,47.6850112 C10.9300818,47.6314796 10.9940967,47.606052 11.0960297,47.606052 C11.3210855,47.606052 11.4834647,47.7775762 11.4834647,47.9995093 C11.4834647,48.1328922 11.4230186,48.2281338 11.3543197,48.2950483 C11.0476283,48.5586914 10.6421264,48.7219628 10.1322379,48.7219628 Z" id="Fill-17" fill="#FFFFFF"></path><path d="M12.3579926,45.5863271 C12.3579926,45.3093011 12.5823792,45.0884833 12.8560595,45.0884833 C13.1339777,45.0884833 13.3565799,45.3093011 13.3565799,45.5863271 L13.3565799,45.6237993 C13.5807435,45.3298216 13.87829,45.0612714 14.3899628,45.0612714 C15.1387361,45.0612714 15.5821561,45.5600074 15.5821561,46.3681115 L15.5821561,48.1817175 C15.5821561,48.4596357 15.3568773,48.6795613 15.0843123,48.6795613 C14.8055019,48.6795613 14.5828996,48.4596357 14.5828996,48.1817175 L14.5828996,46.6817175 C14.5828996,46.2084089 14.3609665,45.9643941 13.975316,45.9643941 C13.5979182,45.9643941 13.3565799,46.2084089 13.3565799,46.6817175 L13.3565799,48.1817175 C13.3565799,48.4596357 13.1339777,48.6795613 12.8560595,48.6795613 C12.5823792,48.6795613 12.3579926,48.4596357 12.3579926,48.1817175 L12.3579926,45.5863271 Z" id="Fill-19" fill="#FFFFFF"></path><path d="M16.1404461,46.9065502 L16.1404461,46.8880372 C16.1404461,45.8878885 16.9121933,45.0608253 17.9879554,45.0608253 C18.5190335,45.0608253 18.8957621,45.2053606 19.1913011,45.4533903 C19.2542007,45.5078141 19.3443123,45.6242454 19.3443123,45.7975539 C19.3443123,46.042461 19.140223,46.2420892 18.8957621,46.2420892 C18.7648327,46.2420892 18.6637918,46.190342 18.6049071,46.1452862 C18.429145,46.0049888 18.2462454,45.9191152 17.9837175,45.9191152 C17.4807435,45.9191152 17.1330112,46.3594126 17.1330112,46.877777 L17.1330112,46.8880372 C17.1330112,47.4275911 17.4789591,47.8591896 18.0176208,47.8591896 C18.2828253,47.8591896 18.4851301,47.7690781 18.6744981,47.6187435 C18.7298141,47.5772565 18.8250558,47.5277398 18.9457249,47.5277398 C19.1794796,47.5277398 19.3655019,47.718223 19.3655019,47.9544312 C19.3655019,48.0853606 19.3050558,48.1872937 19.2218587,48.2687063 C18.9252045,48.5381487 18.5513755,48.7219405 17.9727881,48.7219405 C16.919777,48.7219405 16.1404461,47.9084833 16.1404461,46.9065502" id="Fill-21" fill="#FFFFFF"></path><path d="M20.117197,49.6195093 C19.9733309,49.5684312 19.8009145,49.4484312 19.8009145,49.2062007 C19.8009145,48.9635242 19.9913978,48.8018141 20.1952639,48.8018141 C20.274223,48.8018141 20.3159331,48.8129665 20.3627732,48.8256803 C20.4417323,48.852223 20.4959331,48.8638216 20.5682007,48.8638216 C20.7475316,48.8638216 20.8300595,48.8317026 20.9253011,48.658171 L20.9558587,48.5801041 L19.7549665,45.7977993 C19.7288699,45.7315539 19.701658,45.6329665 19.701658,45.5649368 C19.701658,45.2836729 19.9197993,45.0882825 20.1952639,45.0882825 C20.4417323,45.0882825 20.587829,45.224119 20.675487,45.4621115 L21.4358587,47.5076877 L22.1683494,45.469026 C22.2475316,45.2589145 22.3936283,45.0882825 22.6487955,45.0882825 C22.9061933,45.0882825 23.1212119,45.2836729 23.1212119,45.5444164 C23.1212119,45.6235985 23.0957844,45.7384684 23.0770483,45.7833011 L21.8482751,48.7262007 C21.5540743,49.4408476 21.2565279,49.71029 20.661658,49.71029 C20.4381636,49.71029 20.2809145,49.6812937 20.117197,49.6195093" id="Fill-23" fill="#FFFFFF"></path><path d="M0.465155319,52.3350781 C0.465155319,52.0589442 0.705155319,51.8354498 0.999930094,51.8354498 C1.29902919,51.8354498 1.54071087,52.0589442 1.54071087,52.3350781 L1.54071087,54.9295762 C1.54071087,55.2074944 1.29902919,55.4283123 0.999930094,55.4283123 C0.705155319,55.4283123 0.465155319,55.2074944 0.465155319,54.9295762 L0.465155319,52.3350781 Z M0.404855019,51.0322528 C0.404855019,50.7442974 0.662873037,50.5692045 0.999930094,50.5692045 C1.3420322,50.5692045 1.60485502,50.7442974 1.60485502,51.0322528 L1.60485502,51.0467509 C1.60485502,51.3364907 1.3420322,51.5218439 0.999930094,51.5218439 C0.662873037,51.5218439 0.404855019,51.3364907 0.404855019,51.0467509 L0.404855019,51.0322528 Z" id="Fill-25" fill="#FFFFFF"></path><path d="M2.26460967,52.3350781 C2.26460967,52.0613978 2.48475836,51.8372342 2.76245353,51.8372342 C3.03881041,51.8372342 3.26386617,52.0613978 3.26386617,52.3350781 L3.26386617,52.371658 C3.49092937,52.0732193 3.78490706,51.8064535 4.29055762,51.8064535 C5.04847584,51.8064535 5.48475836,52.3060818 5.48475836,53.1135167 L5.48475836,54.9304684 C5.48475836,55.2074944 5.266171,55.4283123 4.98579926,55.4283123 C4.71211896,55.4283123 4.48684015,55.2074944 4.48684015,54.9304684 L4.48684015,53.4304684 C4.48684015,52.9562677 4.26758364,52.7140372 3.88527881,52.7140372 C3.50208178,52.7140372 3.26386617,52.9562677 3.26386617,53.4304684 L3.26386617,54.9304684 C3.26386617,55.2074944 3.03881041,55.4283123 2.76245353,55.4283123 C2.48475836,55.4283123 2.26460967,55.2074944 2.26460967,54.9304684 L2.26460967,52.3350781 Z" id="Fill-27" fill="#FFFFFF"></path><path d="M6.38382156,54.3934796 L6.38382156,52.7288699 L6.35415613,52.7288699 C6.11794796,52.7288699 5.92657249,52.5359331 5.92657249,52.3003941 C5.92657249,52.0644089 6.11794796,51.8730335 6.35415613,51.8730335 L6.38382156,51.8730335 L6.38382156,51.4360818 C6.38382156,51.1548178 6.61088476,50.9348922 6.88434201,50.9348922 C7.16047584,50.9348922 7.38575465,51.1548178 7.38575465,51.4360818 L7.38575465,51.8730335 L7.82337546,51.8730335 C8.0580223,51.8730335 8.2518513,52.0644089 8.2518513,52.3003941 C8.2518513,52.5359331 8.0580223,52.7288699 7.82337546,52.7288699 L7.38575465,52.7288699 L7.38575465,54.2297621 C7.38575465,54.459948 7.48010409,54.5703569 7.70716729,54.5703569 C7.73839405,54.5703569 7.80463941,54.5627732 7.82337546,54.5627732 C8.04352416,54.5627732 8.2380223,54.7496877 8.2380223,54.9765279 C8.2380223,55.1567509 8.11824535,55.2988327 7.97884015,55.3521413 C7.79794796,55.4186097 7.62620074,55.4498364 7.41051301,55.4498364 C6.80114498,55.4498364 6.38382156,55.2067138 6.38382156,54.3934796" id="Fill-29" fill="#FFFFFF"></path><path d="M11.0268848,53.3570855 C10.9648773,52.911658 10.704803,52.6074201 10.2807881,52.6074201 C9.87015613,52.6074201 9.60160595,52.90229 9.5219777,53.3570855 L11.0268848,53.3570855 Z M10.3851747,55.4680149 C9.32547212,55.4680149 8.54457993,54.7279405 8.54457993,53.6508401 L8.54457993,53.6392416 C8.54457993,52.6364164 9.26101115,51.8077918 10.2807881,51.8077918 C11.4602677,51.8077918 11.9801933,52.7722528 11.9801933,53.5007286 C11.9801933,53.7893532 11.7705279,53.978052 11.5095613,53.978052 L9.53625279,53.978052 C9.634171,54.4295019 9.94933829,54.6681636 10.3963271,54.6681636 C10.6697844,54.6681636 10.9026468,54.5849665 11.1033903,54.4295019 C11.175658,54.379316 11.240119,54.3529963 11.342052,54.3529963 C11.5673309,54.3529963 11.733948,54.5236283 11.733948,54.7497993 C11.733948,54.8771599 11.6735019,54.9750781 11.604803,55.0422156 C11.2936506,55.3056357 10.8926097,55.4680149 10.3851747,55.4680149 Z" id="Fill-31" fill="#FFFFFF"></path><path d="M15.160684,53.4599108 L15.160684,53.446974 C15.160684,52.9705428 14.7893086,52.6373086 14.3030632,52.6373086 C13.8154796,52.6373086 13.4472268,52.9705428 13.4472268,53.446974 L13.4472268,53.4599108 C13.4472268,53.950171 13.8154796,54.273145 14.3030632,54.273145 C14.7893086,54.273145 15.160684,53.940803 15.160684,53.4599108 M12.8983048,56.2098736 C12.7241041,56.1478662 12.612803,56.0060074 12.612803,55.824223 C12.612803,55.6007286 12.7954796,55.4169368 13.0234349,55.4169368 C13.0852193,55.4169368 13.1371896,55.4256357 13.1858141,55.450171 C13.4728773,55.5802082 13.7831375,55.6582751 14.1587509,55.6582751 C14.83771,55.6582751 15.160684,55.3303941 15.160684,54.70229 L15.160684,54.5307658 C14.8658141,54.8860818 14.5435093,55.1002082 14.0108699,55.1002082 C13.189829,55.1002082 12.4506468,54.5053383 12.4506468,53.4599108 L12.4506468,53.446974 C12.4506468,52.3984238 13.2043271,51.8071227 14.0108699,51.8071227 C14.5555539,51.8071227 14.8776357,52.0382007 15.1446245,52.334632 L15.1446245,52.3279405 C15.1446245,52.0584981 15.3690112,51.8367881 15.645145,51.8367881 C15.9212788,51.8367881 16.1405353,52.0584981 16.1405353,52.334632 L16.1405353,54.596119 C16.1405353,55.2275688 15.9924312,55.6863792 15.696,55.9805799 C15.3690112,56.3060074 14.8658141,56.4538885 14.1841784,56.4538885 C13.7175613,56.4538885 13.3122825,56.3755985 12.8983048,56.2098736" id="Fill-33" fill="#FFFFFF"></path><path d="M16.9034721,52.3350781 C16.9034721,52.0613978 17.1329888,51.8372342 17.4039926,51.8372342 C17.6819108,51.8372342 17.9004981,52.0613978 17.9004981,52.3350781 L17.9004981,52.4887584 C18.0481561,52.145487 18.282803,51.8372342 18.5816877,51.8372342 C18.8870409,51.8372342 19.0621338,52.0402082 19.0621338,52.320803 C19.0621338,52.5822156 18.8970781,52.7387955 18.6880818,52.7838513 C18.1851078,52.9027361 17.9004981,53.2919554 17.9004981,53.9981264 L17.9004981,54.9304684 C17.9004981,55.2074944 17.6819108,55.4283123 17.4039926,55.4283123 C17.1329888,55.4283123 16.9034721,55.2074944 16.9034721,54.9304684 L16.9034721,52.3350781 Z" id="Fill-35" fill="#FFFFFF"></path><path d="M21.435881,54.1519182 L21.435881,53.9734796 C21.2634647,53.8945204 21.0413086,53.8407658 20.7977398,53.8407658 C20.3668104,53.8407658 20.1100818,54.0116208 20.1100818,54.3285725 L20.1100818,54.3388327 C20.1100818,54.6091673 20.3293383,54.7655242 20.6523123,54.7655242 C21.1231673,54.7655242 21.435881,54.5096877 21.435881,54.1519182 M19.1431673,54.3789814 L19.1431673,54.3660446 C19.1431673,53.596974 19.7295613,53.2458959 20.5648773,53.2458959 C20.9166245,53.2458959 21.1713457,53.3036654 21.4238364,53.3886468 L21.4238364,53.3308773 C21.4238364,52.9171227 21.1691152,52.6851524 20.6632416,52.6851524 C20.3922379,52.6851524 20.1720892,52.7275316 19.9802677,52.7837398 C19.9198216,52.8040372 19.8781115,52.812513 19.8314944,52.812513 C19.5995242,52.812513 19.4217546,52.6376431 19.4217546,52.4029963 C19.4217546,52.226119 19.52971,52.0773457 19.6903048,52.0180149 C20.0056952,51.9006914 20.3453978,51.8344461 20.8071078,51.8344461 C21.3560297,51.8344461 21.7477026,51.9789814 21.9990781,52.226119 C22.2584833,52.4888699 22.3807138,52.8780892 22.3807138,53.3513978 L22.3807138,54.9482007 C22.3807138,55.2200967 22.1607881,55.4284238 21.8949145,55.4284238 C21.5998216,55.4284238 21.412684,55.2276803 21.412684,55.0162305 L21.412684,55.0086468 C21.1713457,55.2778662 20.8325353,55.4565279 20.3532045,55.4565279 C19.6903048,55.4565279 19.1431673,55.0766766 19.1431673,54.3789814" id="Fill-37" fill="#FFFFFF"></path><path d="M23.2368178,54.3934796 L23.2368178,52.7288699 L23.2042528,52.7288699 C22.970052,52.7288699 22.7795688,52.5359331 22.7795688,52.3003941 C22.7795688,52.0644089 22.970052,51.8730335 23.2042528,51.8730335 L23.2368178,51.8730335 L23.2368178,51.4360818 C23.2368178,51.1548178 23.463658,50.9348922 23.7355539,50.9348922 C24.0134721,50.9348922 24.2354052,51.1548178 24.2354052,51.4360818 L24.2354052,51.8730335 L24.6763717,51.8730335 C24.9150335,51.8730335 25.1003866,52.0644089 25.1003866,52.3003941 C25.1003866,52.5359331 24.9150335,52.7288699 24.6763717,52.7288699 L24.2354052,52.7288699 L24.2354052,54.2297621 C24.2354052,54.459948 24.3331004,54.5703569 24.5599405,54.5703569 C24.5929517,54.5703569 24.6576357,54.5627732 24.6763717,54.5627732 C24.9032119,54.5627732 25.0885651,54.7496877 25.0885651,54.9765279 C25.0885651,55.1567509 24.972803,55.2988327 24.8318364,55.3521413 C24.6509442,55.4186097 24.4816506,55.4498364 24.2617249,55.4498364 C23.6514647,55.4498364 23.2368178,55.2067138 23.2368178,54.3934796" id="Fill-39" fill="#FFFFFF"></path><path d="M27.879881,53.3570855 C27.8178736,52.911658 27.5577993,52.6074201 27.1406989,52.6074201 C26.7231524,52.6074201 26.4563866,52.90229 26.3747509,53.3570855 L27.879881,53.3570855 Z M27.2357175,55.4680149 C26.181145,55.4680149 25.3975762,54.7279405 25.3975762,53.6508401 L25.3975762,53.6392416 C25.3975762,52.6364164 26.1104387,51.8077918 27.1406989,51.8077918 C28.3117026,51.8077918 28.8282825,52.7722528 28.8282825,53.5007286 C28.8282825,53.7893532 28.6244164,53.978052 28.364342,53.978052 L26.3876877,53.978052 C26.4862751,54.4295019 26.8023346,54.6681636 27.2493234,54.6681636 C27.5254572,54.6681636 27.7547509,54.5849665 27.9554944,54.4295019 C28.0286543,54.379316 28.0957918,54.3529963 28.1995093,54.3529963 C28.4245651,54.3529963 28.5869442,54.5236283 28.5869442,54.7497993 C28.5869442,54.8771599 28.5264981,54.9750781 28.4577993,55.0422156 C28.1466468,55.3056357 27.7480595,55.4680149 27.2357175,55.4680149 Z" id="Fill-41" fill="#FFFFFF"></path><path d="M30.2981264,53.6263048 L30.2981264,53.6365651 C30.2981264,54.2229591 30.6967138,54.6095019 31.1624387,54.6095019 C31.6263792,54.6095019 32.0129219,54.2229591 32.0129219,53.6365651 L32.0129219,53.6263048 C32.0129219,53.0416952 31.6263792,52.653368 31.1624387,52.653368 C30.6967138,52.653368 30.2981264,53.0358959 30.2981264,53.6263048 Z M32.9987955,54.9309145 C32.9987955,55.2070483 32.7777546,55.4254126 32.4998364,55.4254126 C32.2239257,55.4254126 31.999539,55.2070483 31.999539,54.9309145 L31.999539,54.8856357 C31.7590929,55.2128476 31.4240743,55.4559703 30.9072714,55.4559703 C30.0864535,55.4559703 29.3055613,54.8135911 29.3055613,53.6365651 L29.3055613,53.6263048 C29.3055613,52.4495019 30.0710632,51.8077918 30.9072714,51.8077918 C31.4385725,51.8077918 31.7648922,52.0500223 31.999539,52.334632 L31.999539,51.0599108 C31.999539,50.7828848 32.2239257,50.5620669 32.4998364,50.5620669 C32.7777546,50.5620669 32.9987955,50.7828848 32.9987955,51.0599108 L32.9987955,54.9309145 Z" id="Fill-43" fill="#FFFFFF"></path><path d="M35.1677398,53.6509294 L35.1677398,53.6366543 C35.1677398,52.6378439 35.935026,51.8085502 37.010342,51.8085502 C37.5447658,51.8085502 37.9127955,51.9530855 38.2092268,52.200223 C38.2765874,52.2537546 38.3682602,52.3710781 38.3682602,52.5434944 C38.3682602,52.7942007 38.1659554,52.9864684 37.9127955,52.9864684 C37.7852119,52.9864684 37.6884089,52.9371747 37.6270706,52.887881 C37.4510855,52.7518216 37.2635019,52.6668401 37.0040967,52.6668401 C36.5080372,52.6668401 36.1509368,53.1053532 36.1509368,53.6263941 L36.1509368,53.6366543 C36.1509368,54.175316 36.497777,54.6104833 37.0458067,54.6104833 C37.305881,54.6104833 37.5124238,54.517026 37.6968848,54.3664684 C37.7513086,54.3281041 37.8481115,54.2739033 37.9687807,54.2739033 C38.2076654,54.2739033 38.3910112,54.4675093 38.3910112,54.7021561 C38.3910112,54.8339777 38.3283346,54.9392565 38.2415688,55.0157621 C37.9502677,55.2849814 37.5744312,55.467881 36.996513,55.467881 C35.9452862,55.467881 35.1677398,54.6537546 35.1677398,53.6509294" id="Fill-45" fill="#FFFFFF"></path><path d="M41.0284015,54.1519182 L41.0284015,53.9734796 C40.8611152,53.8945204 40.6367286,53.8407658 40.3978439,53.8407658 C39.9686989,53.8407658 39.7077323,54.0116208 39.7077323,54.3285725 L39.7077323,54.3388327 C39.7077323,54.6091673 39.932119,54.7655242 40.2492937,54.7655242 C40.7159108,54.7655242 41.0284015,54.5096877 41.0284015,54.1519182 M38.7475093,54.3789814 L38.7475093,54.3660446 C38.7475093,53.596974 39.3272119,53.2458959 40.1591822,53.2458959 C40.5133829,53.2458959 40.7718959,53.3036654 41.02171,53.3886468 L41.02171,53.3308773 C41.02171,52.9171227 40.7667658,52.6851524 40.2653532,52.6851524 C39.9874349,52.6851524 39.7657249,52.7275316 39.577026,52.7837398 C39.5174721,52.8040372 39.4748699,52.812513 39.4309294,52.812513 C39.2047584,52.812513 39.0211896,52.6376431 39.0211896,52.4029963 C39.0211896,52.226119 39.1298141,52.0773457 39.2879554,52.0180149 C39.6049071,51.9006914 39.9432714,51.8344461 40.4114498,51.8344461 C40.9563569,51.8344461 41.3480297,51.9789814 41.5987361,52.226119 C41.8603717,52.4888699 41.9785874,52.8780892 41.9785874,53.3513978 L41.9785874,54.9482007 C41.9785874,55.2200967 41.7608922,55.4284238 41.4898885,55.4284238 C41.2052788,55.4284238 41.0190335,55.2276803 41.0190335,55.0162305 L41.0190335,55.0086468 C40.7718959,55.2778662 40.435316,55.4565279 39.9550929,55.4565279 C39.2879554,55.4565279 38.7475093,55.0766766 38.7475093,54.3789814" id="Fill-47" fill="#FFFFFF"></path><path d="M42.9659331,52.3350781 C42.9659331,52.0613978 43.1867509,51.8372342 43.4646691,51.8372342 C43.7425874,51.8372342 43.7011004,52.0613978 43.7011004,52.3350781 L43.9636283,52.4887584 C44.1115093,52.145487 44.3459331,51.8372342 44.6383494,51.8372342 C44.9510632,51.8372342 45.1268253,52.0402082 45.1268253,52.320803 C45.1268253,52.5822156 44.9537398,52.7387955 44.7514349,52.7838513 C44.2457844,52.9027361 43.9636283,53.2919554 43.9636283,53.9981264 L43.9636283,54.9304684 C43.9636283,55.2074944 43.7425874,55.4283123 43.4646691,55.4283123 C43.1867509,55.4283123 42.9659331,55.2074944 42.9659331,54.9304684 L42.9659331,52.3350781 Z" id="Fill-49" fill="#FFFFFF"></path><path d="M47.5279628,53.3570855 C47.4710855,52.911658 47.2083346,52.6074201 46.7887807,52.6074201 C46.3739108,52.6074201 46.1107138,52.90229 46.0279628,53.3570855 L47.5279628,53.3570855 Z M46.8864758,55.4680149 C45.8292268,55.4680149 45.0483346,54.7279405 45.0483346,53.6508401 L45.0483346,53.6392416 C45.0483346,52.6364164 45.7647658,51.8077918 46.7887807,51.8077918 C47.9622379,51.8077918 48.4814944,52.7722528 48.4814944,53.5007286 C48.4814944,53.7893532 48.2751747,53.978052 48.013316,53.978052 L46.0408996,53.978052 C46.1392639,54.4295019 46.4555465,54.6681636 46.8974052,54.6681636 C47.1753234,54.6681636 47.4081859,54.5849665 47.612052,54.4295019 C47.6816431,54.379316 47.7490037,54.3529963 47.8533903,54.3529963 C48.0762156,54.3529963 48.2385948,54.5236283 48.2385948,54.7497993 C48.2385948,54.8771599 48.1772565,54.9750781 48.105881,55.0422156 C47.7991896,55.3056357 47.3988178,55.4680149 46.8864758,55.4680149 Z" id="Fill-51" fill="#FFFFFF"></path><path d="M25.62,45.1896803 L25.8307807,45.1896803 L25.8307807,44.9289368 C25.8307807,44.6568178 25.8657993,44.4402379 25.9420818,44.2805353 C26.0145725,44.1215019 26.1352416,44.0026171 26.3101115,43.9303494 C26.4794052,43.8562974 26.7120446,43.817487 27.0062454,43.817487 C27.5364312,43.817487 27.7991822,43.9448476 27.7991822,44.1937695 C27.7991822,44.2738439 27.7684015,44.3416506 27.7157621,44.3994201 C27.6620074,44.4571896 27.5948699,44.4835093 27.5228253,44.4835093 C27.4853532,44.4835093 27.4251301,44.47771 27.3401487,44.4674498 C27.2533829,44.4547361 27.1420818,44.4078959 27.0827509,44.4078959 C26.9161338,44.4078959 26.8539033,44.4928773 26.8063941,44.5847732 C26.7604461,44.6791227 26.7350186,44.8107212 26.7350186,44.9822454 L26.7350186,45.1896803 L27.4251301,45.1896803 C27.7641636,45.1896803 27.9399257,45.2882677 27.9399257,45.4890112 C27.9399257,45.6281933 27.8966543,45.719197 27.8040892,45.7582305 C27.7133086,45.797487 27.5857249,45.8153309 27.4251301,45.8153309 L26.7350186,45.8153309 L26.7350186,48.1165204 C26.7350186,48.2891599 26.6950929,48.4207584 26.6094424,48.5075242 C26.5242379,48.5974126 26.4147212,48.6433606 26.2804461,48.6433606 C26.1504089,48.6433606 26.0484758,48.5974126 25.9599257,48.5075242 C25.8751673,48.4207584 25.8307807,48.2891599 25.8307807,48.1165204 L25.8307807,45.8153309 L25.5834201,45.8153309 C25.4527138,45.8153309 25.3489963,45.7845502 25.2767286,45.7285651 C25.1993309,45.6707955 25.1681041,45.5936208 25.1681041,45.4999405 C25.1681041,45.2909442 25.3159851,45.1896803 25.62,45.1896803" id="Fill-53" fill="#FFFFFF"></path><path d="M30.641197,46.8819257 C30.641197,46.5547138 30.5707138,46.297316 30.4203792,46.112855 C30.2740595,45.9277249 30.0844684,45.8367212 29.838,45.8367212 C29.6816431,45.8367212 29.5413457,45.877539 29.4175539,45.9625204 C29.3008996,46.0408104 29.2083346,46.1654944 29.1387435,46.3245279 C29.0782974,46.4842305 29.0426097,46.6735985 29.0426097,46.8819257 C29.0426097,47.0944907 29.0742825,47.2814052 29.1387435,47.4411078 C29.2016431,47.5983569 29.2942082,47.7199182 29.4122007,47.7997695 C29.5328699,47.8847509 29.6740595,47.9280223 29.838,47.9280223 C30.0844684,47.9280223 30.2740595,47.8345651 30.4203792,47.6536729 C30.5707138,47.464974 30.641197,47.2109219 30.641197,46.8819257 M31.5757695,46.8819257 C31.5757695,47.1428922 31.5333903,47.3815539 31.4528699,47.6025948 C31.3736877,47.8227435 31.2556952,48.0112193 31.1069219,48.1677993 C30.9514572,48.3250483 30.7661041,48.4457175 30.5501933,48.5280223 C30.341197,48.6123346 30.105881,48.6562751 29.838,48.6562751 C29.574803,48.6562751 29.3334647,48.6123346 29.1251375,48.5280223 C28.9152491,48.4396952 28.7323494,48.3205874 28.5751004,48.1626691 C28.4274424,48.0036357 28.3083346,47.8167212 28.2295985,47.6019257 C28.1468476,47.3842305 28.107145,47.1437844 28.107145,46.8819257 C28.107145,46.6169442 28.1468476,46.3780595 28.231829,46.1579108 C28.3110112,45.942 28.4274424,45.7541933 28.5751004,45.600513 C28.7292268,45.4475019 28.9110112,45.3217026 29.1251375,45.2418513 C29.3383717,45.1577621 29.574803,45.116052 29.838,45.116052 C30.105881,45.116052 30.3394126,45.1602156 30.5501933,45.2418513 C30.7685576,45.3283941 30.9539108,45.4490632 31.1095985,45.6080967 C31.2556952,45.7662379 31.3779257,45.9495836 31.4544312,46.1672788 C31.5360669,46.3865353 31.5757695,46.6227435 31.5757695,46.8819257" id="Fill-55" fill="#FFFFFF"></path><path d="M32.0526691,45.6066022 C32.0526691,45.3347063 32.277948,45.1109888 32.550513,45.1109888 C32.822632,45.1109888 33.0494721,45.3347063 33.0494721,45.6066022 L33.0494721,45.7656357 C33.1906617,45.4230335 33.4302156,45.1109888 33.7215167,45.1109888 C34.031777,45.1109888 34.2077621,45.3108401 34.2077621,45.5936654 C34.2077621,45.8555242 34.0393606,46.011881 33.8372788,46.0587212 C33.3300669,46.1751524 33.0494721,46.5652639 33.0494721,47.2696506 L33.0494721,48.2053383 C33.0494721,48.4816952 32.822632,48.7016208 32.550513,48.7016208 C32.277948,48.7016208 32.0526691,48.4816952 32.0526691,48.2053383 L32.0526691,45.6066022 Z" id="Fill-57" fill="#FFFFFF"></path></g></g></g></g></g></svg>